{
  "accessors": [
    {
      "bufferView": 2,
      "componentType": 5126,
      "count": 4069,
      "max": [
        10.826199531555176,
        10.786600112915039,
        34.499298095703125
      ],
      "min": [
        -10.765399932861328,
        -10.813400268554688,
        12.907699584960938
      ],
      "type": "VEC3"
    },
    {
      "bufferView": 2,
      "byteOffset": 48828,
      "componentType": 5126,
      "count": 4069,
      "max": [
        0.9996079802513123,
        1.0,
        0.9996107220649719
      ],
      "min": [
        -0.9996079802513123,
        -1.0,
        -0.9996107220649719
      ],
      "type": "VEC3"
    },
    {
      "bufferView": 1,
      "componentType": 5126,
      "count": 4069,
      "max": [
        0.9951000213623047,
        1.0
      ],
      "min": [
        -0.20000000298023224,
        0.0
      ],
      "type": "VEC2"
    },
    {
      "bufferView": 0,
      "componentType": 5125,
      "count": 24000,
      "type": "SCALAR"
    },
    {
      "bufferView": 2,
      "byteOffset": 97656,
      "componentType": 5126,
      "count": 128,
      "max": [
        20.169300079345703,
        2.640700101852417,
        20.099000930786133
      ],
      "min": [
        -20.10849952697754,
        -2.6675000190734863,
        7.154399871826172
      ],
      "type": "VEC3"
    },
    {
      "bufferView": 2,
      "byteOffset": 99192,
      "componentType": 5126,
      "count": 128,
      "max": [
        0.9884732365608215,
        0.7278944849967957,
        0.9957402348518372
      ],
      "min": [
        -0.9884732365608215,
        -0.7278550863265991,
        -0.9957402348518372
      ],
      "type": "VEC3"
    },
    {
      "bufferView": 0,
      "byteOffset": 96000,
      "componentType": 5125,
      "count": 744,
      "type": "SCALAR"
    },
    {
      "bufferView": 2,
      "byteOffset": 100728,
      "componentType": 5126,
      "count": 2078,
      "max": [
        27.868000030517578,
        7.132299900054932,
        14.62660026550293
      ],
      "min": [
        -28.159400939941406,
        -7.15910005569458,
        0.11569999903440475
      ],
      "type": "VEC3"
    },
    {
      "bufferView": 2,
      "byteOffset": 125664,
      "componentType": 5126,
      "count": 2078,
      "max": [
        0.9993908405303955,
        1.0,
        0.999846875667572
      ],
      "min": [
        -0.9993908405303955,
        -1.0,
        -0.999846875667572
      ],
      "type": "VEC3"
    },
    {
      "bufferView": 1,
      "byteOffset": 32552,
      "componentType": 5126,
      "count": 2078,
      "max": [
        0.9901999831199646,
        1.0
      ],
      "min": [
        -0.20000000298023224,
        0.0
      ],
      "type": "VEC2"
    },
    {
      "bufferView": 0,
      "byteOffset": 98976,
      "componentType": 5125,
      "count": 12000,
      "type": "SCALAR"
    }
  ],
  "asset": {
    "extras": {
      "author": "Mehdi Mirzaie (https://sketchfab.com/MehdiMM)",
      "license": "CC-BY-4.0 (http://creativecommons.org/licenses/by/4.0/)",
      "source": "https://sketchfab.com/3d-models/h2o-molecule-e181944932084b5dbb4d5b625a5e9b10",
      "title": "H2O Molecule"
    },
    "generator": "Sketchfab-12.68.0",
    "version": "2.0"
  },
  "bufferViews": [
    {
      "buffer": 0,
      "byteLength": 146976,
      "name": "floatBufferViews",
      "target": 34963
    },
    {
      "buffer": 0,
      "byteLength": 49176,
      "byteOffset": 146976,
      "byteStride": 8,
      "name": "floatBufferViews",
      "target": 34962
    },
    {
      "buffer": 0,
      "byteLength": 150600,
      "byteOffset": 196152,
      "byteStride": 12,
      "name": "floatBufferViews",
      "target": 34962
    }
  ],
  "buffers": [
    {
      "byteLength": 346752,
      "uri": "scene.bin"
    }
  ],
  "materials": [
    {
      "doubleSided": true,
      "name": "Material__26",
      "pbrMetallicRoughness": {
        "baseColorFactor": [
          0.7665614189803082,
          0.7665614189803082,
          0.7665614189803082,
          1.0
        ],
        "metallicFactor": 0.0,
        "roughnessFactor": 0.25
      }
    },
    {
      "doubleSided": true,
      "name": "Material__27",
      "pbrMetallicRoughness": {
        "baseColorFactor": [
          1.0,
          0.0,
          0.0,
          1.0
        ],
        "metallicFactor": 0.0,
        "roughnessFactor": 0.35
      }
    },
    {
      "doubleSided": true,
      "name": "Material__28",
      "pbrMetallicRoughness": {
        "baseColorFactor": [
          0.14430706441529748,
          0.24768787673457265,
          1.0,
          1.0
        ],
        "metallicFactor": 0.0,
        "roughnessFactor": 0.4
      }
    }
  ],
  "meshes": [
    {
      "name": "Object_0",
      "primitives": [
        {
          "attributes": {
            "NORMAL": 1,
            "POSITION": 0,
            "TEXCOORD_0": 2
          },
          "indices": 3,
          "material": 2,
          "mode": 4
        }
      ]
    },
    {
      "name": "Object_1",
      "primitives": [
        {
          "attributes": {
            "NORMAL": 5,
            "POSITION": 4
          },
          "indices": 6,
          "material": 0,
          "mode": 4
        }
      ]
    },
    {
      "name": "Object_2",
      "primitives": [
        {
          "attributes": {
            "NORMAL": 8,
            "POSITION": 7,
            "TEXCOORD_0": 9
          },
          "indices": 10,
          "material": 1,
          "mode": 4
        }
      ]
    }
  ],
  "nodes": [
    {
      "children": [
        1
      ],
      "matrix": [
        0.014697331003844738,
        0.0,
        0.0,
        0.0,
        0.0,
        3.2634630562011187e-18,
        -0.014697331003844738,
        0.0,
        0.0,
        0.014697331003844738,
        3.2634630562011187e-18,
        0.0,
        0.0,
        0.0,
        0.0,
        1.0
      ],
      "name": "Sketchfab_model"
    },
    {
      "children": [
        2,
        3,
        4
      ],
      "name": "H2O.obj.cleaner.materialmerger.gles"
    },
    {
      "mesh": 0,
      "name": "Object_2"
    },
    {
      "mesh": 1,
      "name": "Object_3"
    },
    {
      "mesh": 2,
      "name": "Object_4"
    }
  ],
  "scene": 0,
  "scenes": [
    {
      "name": "Sketchfab_Scene",
      "nodes": [
        0
      ]
    }
  ]
}
