{
  "accessors": [
    {
      "bufferView": 2,
      "componentType": 5126,
      "count": 65533,
      "max": [
        1.716644048690796,
        2.032589912414551,
        3.386902093887329
      ],
      "min": [
        -1.7305059432983398,
        -2.2946720123291016,
        0.07362700253725052
      ],
      "type": "VEC3"
    },
    {
      "bufferView": 2,
      "byteOffset": 786396,
      "componentType": 5126,
      "count": 65533,
      "max": [
        0.9995840191841125,
        0.9998693466186523,
        0.999906063079834
      ],
      "min": [
        -0.9999858140945435,
        -0.9998442530632019,
        -0.9999887943267822
      ],
      "type": "VEC3"
    },
    {
      "bufferView": 1,
      "componentType": 5126,
      "count": 65533,
      "max": [
        0.9989420175552368,
        0.9426530003547668
      ],
      "min": [
        0.0,
        0.004610999953001738
      ],
      "type": "VEC2"
    },
    {
      "bufferView": 0,
      "componentType": 5125,
      "count": 65559,
      "type": "SCALAR"
    },
    {
      "bufferView": 2,
      "byteOffset": 1572792,
      "componentType": 5126,
      "count": 65533,
      "max": [
        0.16912299394607544,
        2.0015358924865723,
        3.1085400581359863
      ],
      "min": [
        -1.5096499919891357,
        0.0871490016579628,
        1.0294369459152222
      ],
      "type": "VEC3"
    },
    {
      "bufferView": 2,
      "byteOffset": 2359188,
      "componentType": 5126,
      "count": 65533,
      "max": [
        0.9999910593032837,
        0.9996647238731384,
        0.9997518658638
      ],
      "min": [
        -0.999997615814209,
        -0.9337099194526672,
        -0.9999051094055176
      ],
      "type": "VEC3"
    },
    {
      "bufferView": 1,
      "byteOffset": 524264,
      "componentType": 5126,
      "count": 65533,
      "max": [
        0.8507320284843445,
        0.5741459727287292
      ],
      "min": [
        0.007271999958902597,
        0.0722929984331131
      ],
      "type": "VEC2"
    },
    {
      "bufferView": 0,
      "byteOffset": 262236,
      "componentType": 5125,
      "count": 65565,
      "type": "SCALAR"
    },
    {
      "bufferView": 2,
      "byteOffset": 3145584,
      "componentType": 5126,
      "count": 65533,
      "max": [
        1.6871750354766846,
        2.016321897506714,
        3.1727449893951416
      ],
      "min": [
        -1.5968949794769287,
        -1.922734022140503,
        0.41047000885009766
      ],
      "type": "VEC3"
    },
    {
      "bufferView": 2,
      "byteOffset": 3931980,
      "componentType": 5126,
      "count": 65533,
      "max": [
        0.99998939037323,
        0.9995793700218201,
        0.9999499320983887
      ],
      "min": [
        -0.999903678894043,
        -0.9987486004829407,
        -0.9999656677246094
      ],
      "type": "VEC3"
    },
    {
      "bufferView": 1,
      "byteOffset": 1048528,
      "componentType": 5126,
      "count": 65533,
      "max": [
        0.9690489768981934,
        0.9250640273094177
      ],
      "min": [
        0.0,
        0.03968299925327301
      ],
      "type": "VEC2"
    },
    {
      "bufferView": 0,
      "byteOffset": 524496,
      "componentType": 5125,
      "count": 65565,
      "type": "SCALAR"
    },
    {
      "bufferView": 2,
      "byteOffset": 4718376,
      "componentType": 5126,
      "count": 65532,
      "max": [
        1.729972004890442,
        0.6132410168647766,
        3.0736799240112305
      ],
      "min": [
        -1.2023329734802246,
        -2.0647740364074707,
        0.501829981803894
      ],
      "type": "VEC3"
    },
    {
      "bufferView": 2,
      "byteOffset": 5504760,
      "componentType": 5126,
      "count": 65532,
      "max": [
        0.9999275207519531,
        0.9994707703590393,
        0.999943733215332
      ],
      "min": [
        -0.9999053478240967,
        -0.9998878240585327,
        -0.9999316930770874
      ],
      "type": "VEC3"
    },
    {
      "bufferView": 1,
      "byteOffset": 1572792,
      "componentType": 5126,
      "count": 65532,
      "max": [
        0.9662579894065857,
        0.9281139969825745
      ],
      "min": [
        0.00031900001340545714,
        0.030657000839710236
      ],
      "type": "VEC2"
    },
    {
      "bufferView": 0,
      "byteOffset": 786756,
      "componentType": 5125,
      "count": 65550,
      "type": "SCALAR"
    },
    {
      "bufferView": 2,
      "byteOffset": 6291144,
      "componentType": 5126,
      "count": 65534,
      "max": [
        1.7163419723510742,
        0.39243200421333313,
        2.8975179195404053
      ],
      "min": [
        -1.0440939664840698,
        -2.1898880004882813,
        0.5327370166778564
      ],
      "type": "VEC3"
    },
    {
      "bufferView": 2,
      "byteOffset": 7077552,
      "componentType": 5126,
      "count": 65534,
      "max": [
        0.9999498128890991,
        0.9996480345726013,
        0.9989170432090759
      ],
      "min": [
        -0.9997926354408264,
        -0.9999828338623047,
        -0.9999064207077026
      ],
      "type": "VEC3"
    },
    {
      "bufferView": 1,
      "byteOffset": 2097048,
      "componentType": 5126,
      "count": 65534,
      "max": [
        0.954725980758667,
        0.9319239854812622
      ],
      "min": [
        0.00736499996855855,
        0.010576000437140465
      ],
      "type": "VEC2"
    },
    {
      "bufferView": 0,
      "byteOffset": 1048956,
      "componentType": 5125,
      "count": 65550,
      "type": "SCALAR"
    },
    {
      "bufferView": 2,
      "byteOffset": 7863960,
      "componentType": 5126,
      "count": 65533,
      "max": [
        1.689749002456665,
        0.13491100072860718,
        2.682543992996216
      ],
      "min": [
        -0.8058450222015381,
        -2.2947020530700684,
        0.4483279883861542
      ],
      "type": "VEC3"
    },
    {
      "bufferView": 2,
      "byteOffset": 8650356,
      "componentType": 5126,
      "count": 65533,
      "max": [
        0.999887228012085,
        0.9996461272239685,
        0.9995654225349426
      ],
      "min": [
        -0.9996055960655212,
        -0.9999878406524658,
        -0.999961256980896
      ],
      "type": "VEC3"
    },
    {
      "bufferView": 1,
      "byteOffset": 2621320,
      "componentType": 5126,
      "count": 65533,
      "max": [
        0.96567702293396,
        0.9319319725036621
      ],
      "min": [
        0.0041669998317956924,
        0.011587999761104584
      ],
      "type": "VEC2"
    },
    {
      "bufferView": 0,
      "byteOffset": 1311156,
      "componentType": 5125,
      "count": 65553,
      "type": "SCALAR"
    },
    {
      "bufferView": 2,
      "byteOffset": 9436752,
      "componentType": 5126,
      "count": 65532,
      "max": [
        1.528306007385254,
        -0.36866000294685364,
        2.3004488945007324
      ],
      "min": [
        -0.3288710117340088,
        -2.270451068878174,
        0.44403600692749023
      ],
      "type": "VEC3"
    },
    {
      "bufferView": 2,
      "byteOffset": 10223136,
      "componentType": 5126,
      "count": 65532,
      "max": [
        0.9999645948410034,
        0.9991931915283203,
        0.9994256496429443
      ],
      "min": [
        -0.9999375343322754,
        -0.9999748468399048,
        -0.9998620748519897
      ],
      "type": "VEC3"
    },
    {
      "bufferView": 1,
      "byteOffset": 3145584,
      "componentType": 5126,
      "count": 65532,
      "max": [
        0.9766640067100525,
        0.944221019744873
      ],
      "min": [
        0.004548000171780586,
        0.014952000230550766
      ],
      "type": "VEC2"
    },
    {
      "bufferView": 0,
      "byteOffset": 1573368,
      "componentType": 5125,
      "count": 65562,
      "type": "SCALAR"
    },
    {
      "bufferView": 2,
      "byteOffset": 11009520,
      "componentType": 5126,
      "count": 65533,
      "max": [
        1.6517360210418701,
        -0.033330999314785004,
        2.5865650177001953
      ],
      "min": [
        -0.6321539878845215,
        -2.249803066253662,
        0.4398820102214813
      ],
      "type": "VEC3"
    },
    {
      "bufferView": 2,
      "byteOffset": 11795916,
      "componentType": 5126,
      "count": 65533,
      "max": [
        0.9999877214431763,
        0.9904219508171082,
        0.9983429908752441
      ],
      "min": [
        -0.999468982219696,
        -0.9997649788856506,
        -0.9999905824661255
      ],
      "type": "VEC3"
    },
    {
      "bufferView": 1,
      "byteOffset": 3669840,
      "componentType": 5126,
      "count": 65533,
      "max": [
        1.0,
        0.9405940175056458
      ],
      "min": [
        0.0012280000373721123,
        0.007652000058442354
      ],
      "type": "VEC2"
    },
    {
      "bufferView": 0,
      "byteOffset": 1835616,
      "componentType": 5125,
      "count": 65559,
      "type": "SCALAR"
    },
    {
      "bufferView": 2,
      "byteOffset": 12582312,
      "componentType": 5126,
      "count": 65534,
      "max": [
        1.6677759885787964,
        1.0731600522994995,
        3.249979019165039
      ],
      "min": [
        -1.4017430543899536,
        -2.235882043838501,
        0.26574400067329407
      ],
      "type": "VEC3"
    },
    {
      "bufferView": 2,
      "byteOffset": 13368720,
      "componentType": 5126,
      "count": 65534,
      "max": [
        0.9999176263809204,
        0.9986122846603394,
        0.9999371767044067
      ],
      "min": [
        -0.9999427795410156,
        -0.9998823404312134,
        -0.9999234676361084
      ],
      "type": "VEC3"
    },
    {
      "bufferView": 1,
      "byteOffset": 4194104,
      "componentType": 5126,
      "count": 65534,
      "max": [
        0.979686975479126,
        0.9310349822044373
      ],
      "min": [
        0.0,
        0.012089000083506107
      ],
      "type": "VEC2"
    },
    {
      "bufferView": 0,
      "byteOffset": 2097852,
      "componentType": 5125,
      "count": 65556,
      "type": "SCALAR"
    },
    {
      "bufferView": 2,
      "byteOffset": 14155128,
      "componentType": 5126,
      "count": 65532,
      "max": [
        1.5669660568237305,
        1.3378310203552246,
        3.2997360229492188
      ],
      "min": [
        -1.5267139673233032,
        -1.5563130378723145,
        0.09167400002479553
      ],
      "type": "VEC3"
    },
    {
      "bufferView": 2,
      "byteOffset": 14941512,
      "componentType": 5126,
      "count": 65532,
      "max": [
        0.9999755620956421,
        0.988267719745636,
        0.9999507665634155
      ],
      "min": [
        -0.9999682903289795,
        -0.9994356632232666,
        -0.9999176263809204
      ],
      "type": "VEC3"
    },
    {
      "bufferView": 1,
      "byteOffset": 4718376,
      "componentType": 5126,
      "count": 65532,
      "max": [
        0.9878789782524109,
        0.8880490064620972
      ],
      "min": [
        0.007683999836444855,
        0.0697920024394989
      ],
      "type": "VEC2"
    },
    {
      "bufferView": 0,
      "byteOffset": 2360076,
      "componentType": 5125,
      "count": 65550,
      "type": "SCALAR"
    },
    {
      "bufferView": 2,
      "byteOffset": 15727896,
      "componentType": 5126,
      "count": 65533,
      "max": [
        1.4910149574279785,
        1.5935009717941284,
        3.365264892578125
      ],
      "min": [
        -1.6397370100021362,
        -1.333616018295288,
        0.07362700253725052
      ],
      "type": "VEC3"
    },
    {
      "bufferView": 2,
      "byteOffset": 16514292,
      "componentType": 5126,
      "count": 65533,
      "max": [
        0.9999123811721802,
        0.9991873502731323,
        0.9999754428863525
      ],
      "min": [
        -0.9999667406082153,
        -0.9998739957809448,
        -0.9999279975891113
      ],
      "type": "VEC3"
    },
    {
      "bufferView": 1,
      "byteOffset": 5242632,
      "componentType": 5126,
      "count": 65533,
      "max": [
        1.0,
        0.8468809723854065
      ],
      "min": [
        0.007981999777257442,
        0.02296300046145916
      ],
      "type": "VEC2"
    },
    {
      "bufferView": 0,
      "byteOffset": 2622276,
      "componentType": 5125,
      "count": 65565,
      "type": "SCALAR"
    },
    {
      "bufferView": 2,
      "byteOffset": 17300688,
      "componentType": 5126,
      "count": 65532,
      "max": [
        1.2567219734191895,
        1.778628945350647,
        3.3876049518585205
      ],
      "min": [
        -1.7274630069732666,
        -1.0765819549560547,
        0.10228800028562546
      ],
      "type": "VEC3"
    },
    {
      "bufferView": 2,
      "byteOffset": 18087072,
      "componentType": 5126,
      "count": 65532,
      "max": [
        0.99888676404953,
        0.9999339580535889,
        0.999997615814209
      ],
      "min": [
        -0.9999991655349731,
        -0.9931655526161194,
        -0.9999932050704956
      ],
      "type": "VEC3"
    },
    {
      "bufferView": 1,
      "byteOffset": 5766896,
      "componentType": 5126,
      "count": 65532,
      "max": [
        0.9757260084152222,
        0.8108919858932495
      ],
      "min": [
        0.01165900006890297,
        0.017253000289201736
      ],
      "type": "VEC2"
    },
    {
      "bufferView": 0,
      "byteOffset": 2884536,
      "componentType": 5125,
      "count": 65568,
      "type": "SCALAR"
    },
    {
      "bufferView": 2,
      "byteOffset": 18873456,
      "componentType": 5126,
      "count": 65532,
      "max": [
        1.0920460224151611,
        1.9440690279006958,
        3.3822829723358154
      ],
      "min": [
        -1.734961986541748,
        -0.797789990901947,
        0.4908370077610016
      ],
      "type": "VEC3"
    },
    {
      "bufferView": 2,
      "byteOffset": 19659840,
      "componentType": 5126,
      "count": 65532,
      "max": [
        0.977034330368042,
        0.9999768733978271,
        0.99992835521698
      ],
      "min": [
        -0.9999927282333374,
        -0.9944924116134644,
        -0.999855637550354
      ],
      "type": "VEC3"
    },
    {
      "bufferView": 1,
      "byteOffset": 6291152,
      "componentType": 5126,
      "count": 65532,
      "max": [
        0.8914890289306641,
        0.7654880285263062
      ],
      "min": [
        0.021723000332713127,
        0.0
      ],
      "type": "VEC2"
    },
    {
      "bufferView": 0,
      "byteOffset": 3146808,
      "componentType": 5125,
      "count": 65562,
      "type": "SCALAR"
    },
    {
      "bufferView": 2,
      "byteOffset": 20446224,
      "componentType": 5126,
      "count": 65534,
      "max": [
        0.7959480285644531,
        2.033345937728882,
        3.274588108062744
      ],
      "min": [
        -1.6950589418411255,
        -0.477510005235672,
        0.5790899991989136
      ],
      "type": "VEC3"
    },
    {
      "bufferView": 2,
      "byteOffset": 21232632,
      "componentType": 5126,
      "count": 65534,
      "max": [
        0.9981139302253723,
        0.9999294281005859,
        0.9999685287475586
      ],
      "min": [
        -0.9999783039093018,
        -0.9508257508277893,
        -0.9999798536300659
      ],
      "type": "VEC3"
    },
    {
      "bufferView": 1,
      "byteOffset": 6815408,
      "componentType": 5126,
      "count": 65534,
      "max": [
        0.8901010155677795,
        0.7204020023345947
      ],
      "min": [
        0.0,
        0.07431899756193161
      ],
      "type": "VEC2"
    },
    {
      "bufferView": 0,
      "byteOffset": 3409056,
      "componentType": 5125,
      "count": 65568,
      "type": "SCALAR"
    },
    {
      "bufferView": 2,
      "byteOffset": 22019040,
      "componentType": 5126,
      "count": 7129,
      "max": [
        0.42093199491500854,
        2.0265610218048096,
        3.195570945739746
      ],
      "min": [
        -1.6155849695205688,
        -0.12436600029468536,
        0.8204699754714966
      ],
      "type": "VEC3"
    },
    {
      "bufferView": 2,
      "byteOffset": 22104588,
      "componentType": 5126,
      "count": 7129,
      "max": [
        0.9923087358474731,
        0.9998124241828918,
        0.9996375441551208
      ],
      "min": [
        -0.9995051026344299,
        -0.7306047081947327,
        -0.990567147731781
      ],
      "type": "VEC3"
    },
    {
      "bufferView": 1,
      "byteOffset": 7339680,
      "componentType": 5126,
      "count": 7129,
      "max": [
        0.8798350095748901,
        0.6001459956169128
      ],
      "min": [
        0.00023200000578071922,
        0.08572500199079514
      ],
      "type": "VEC2"
    },
    {
      "bufferView": 0,
      "byteOffset": 3671328,
      "componentType": 5125,
      "count": 7131,
      "type": "SCALAR"
    }
  ],
  "asset": {
    "extras": {
      "author": "Lassi Kaukonen (https://sketchfab.com/thesidekick)",
      "license": "CC-BY-4.0 (http://creativecommons.org/licenses/by/4.0/)",
      "source": "https://sketchfab.com/3d-models/human-brain-d62ad17385504c939c315e572a8215fb",
      "title": "Human Brain"
    },
    "generator": "Sketchfab-12.68.0",
    "version": "2.0"
  },
  "bufferViews": [
    {
      "buffer": 0,
      "byteLength": 3699852,
      "name": "floatBufferViews",
      "target": 34963
    },
    {
      "buffer": 0,
      "byteLength": 7396712,
      "byteOffset": 3699852,
      "byteStride": 8,
      "name": "floatBufferViews",
      "target": 34962
    },
    {
      "buffer": 0,
      "byteLength": 22190136,
      "byteOffset": 11096564,
      "byteStride": 12,
      "name": "floatBufferViews",
      "target": 34962
    }
  ],
  "buffers": [
    {
      "byteLength": 33286700,
      "uri": "scene.bin"
    }
  ],
  "images": [
    {
      "uri": "textures/Human_Brains_baseColor.jpeg"
    }
  ],
  "materials": [
    {
      "doubleSided": true,
      "emissiveFactor": [
        0.7443181818181819,
        0.7443181818181819,
        0.7443181818181819
      ],
      "emissiveTexture": {
        "index": 0
      },
      "name": "Human_Brains",
      "pbrMetallicRoughness": {
        "baseColorTexture": {
          "index": 0
        },
        "metallicFactor": 0.0
      }
    }
  ],
  "meshes": [
    {
      "name": "Object_0",
      "primitives": [
        {
          "attributes": {
            "NORMAL": 1,
            "POSITION": 0,
            "TEXCOORD_0": 2
          },
          "indices": 3,
          "material": 0,
          "mode": 4
        }
      ]
    },
    {
      "name": "Object_1",
      "primitives": [
        {
          "attributes": {
            "NORMAL": 5,
            "POSITION": 4,
            "TEXCOORD_0": 6
          },
          "indices": 7,
          "material": 0,
          "mode": 4
        }
      ]
    },
    {
      "name": "Object_2",
      "primitives": [
        {
          "attributes": {
            "NORMAL": 9,
            "POSITION": 8,
            "TEXCOORD_0": 10
          },
          "indices": 11,
          "material": 0,
          "mode": 4
        }
      ]
    },
    {
      "name": "Object_3",
      "primitives": [
        {
          "attributes": {
            "NORMAL": 13,
            "POSITION": 12,
            "TEXCOORD_0": 14
          },
          "indices": 15,
          "material": 0,
          "mode": 4
        }
      ]
    },
    {
      "name": "Object_4",
      "primitives": [
        {
          "attributes": {
            "NORMAL": 17,
            "POSITION": 16,
            "TEXCOORD_0": 18
          },
          "indices": 19,
          "material": 0,
          "mode": 4
        }
      ]
    },
    {
      "name": "Object_5",
      "primitives": [
        {
          "attributes": {
            "NORMAL": 21,
            "POSITION": 20,
            "TEXCOORD_0": 22
          },
          "indices": 23,
          "material": 0,
          "mode": 4
        }
      ]
    },
    {
      "name": "Object_6",
      "primitives": [
        {
          "attributes": {
            "NORMAL": 25,
            "POSITION": 24,
            "TEXCOORD_0": 26
          },
          "indices": 27,
          "material": 0,
          "mode": 4
        }
      ]
    },
    {
      "name": "Object_7",
      "primitives": [
        {
          "attributes": {
            "NORMAL": 29,
            "POSITION": 28,
            "TEXCOORD_0": 30
          },
          "indices": 31,
          "material": 0,
          "mode": 4
        }
      ]
    },
    {
      "name": "Object_8",
      "primitives": [
        {
          "attributes": {
            "NORMAL": 33,
            "POSITION": 32,
            "TEXCOORD_0": 34
          },
          "indices": 35,
          "material": 0,
          "mode": 4
        }
      ]
    },
    {
      "name": "Object_9",
      "primitives": [
        {
          "attributes": {
            "NORMAL": 37,
            "POSITION": 36,
            "TEXCOORD_0": 38
          },
          "indices": 39,
          "material": 0,
          "mode": 4
        }
      ]
    },
    {
      "name": "Object_10",
      "primitives": [
        {
          "attributes": {
            "NORMAL": 41,
            "POSITION": 40,
            "TEXCOORD_0": 42
          },
          "indices": 43,
          "material": 0,
          "mode": 4
        }
      ]
    },
    {
      "name": "Object_11",
      "primitives": [
        {
          "attributes": {
            "NORMAL": 45,
            "POSITION": 44,
            "TEXCOORD_0": 46
          },
          "indices": 47,
          "material": 0,
          "mode": 4
        }
      ]
    },
    {
      "name": "Object_12",
      "primitives": [
        {
          "attributes": {
            "NORMAL": 49,
            "POSITION": 48,
            "TEXCOORD_0": 50
          },
          "indices": 51,
          "material": 0,
          "mode": 4
        }
      ]
    },
    {
      "name": "Object_13",
      "primitives": [
        {
          "attributes": {
            "NORMAL": 53,
            "POSITION": 52,
            "TEXCOORD_0": 54
          },
          "indices": 55,
          "material": 0,
          "mode": 4
        }
      ]
    },
    {
      "name": "Object_14",
      "primitives": [
        {
          "attributes": {
            "NORMAL": 57,
            "POSITION": 56,
            "TEXCOORD_0": 58
          },
          "indices": 59,
          "material": 0,
          "mode": 4
        }
      ]
    }
  ],
  "nodes": [
    {
      "children": [
        1
      ],
      "matrix": [
        1.0,
        0.0,
        0.0,
        0.0,
        0.0,
        2.220446049250313e-16,
        -1.0,
        0.0,
        0.0,
        1.0,
        2.220446049250313e-16,
        0.0,
        0.0,
        0.0,
        0.0,
        1.0
      ],
      "name": "Sketchfab_model"
    },
    {
      "children": [
        2,
        3,
        4,
        5,
        6,
        7,
        8,
        9,
        10,
        11,
        12,
        13,
        14,
        15,
        16
      ],
      "name": "Human_Brains_0align.obj.cleaner.materialmerger.gles"
    },
    {
      "mesh": 0,
      "name": "Object_2"
    },
    {
      "mesh": 1,
      "name": "Object_3"
    },
    {
      "mesh": 2,
      "name": "Object_4"
    },
    {
      "mesh": 3,
      "name": "Object_5"
    },
    {
      "mesh": 4,
      "name": "Object_6"
    },
    {
      "mesh": 5,
      "name": "Object_7"
    },
    {
      "mesh": 6,
      "name": "Object_8"
    },
    {
      "mesh": 7,
      "name": "Object_9"
    },
    {
      "mesh": 8,
      "name": "Object_10"
    },
    {
      "mesh": 9,
      "name": "Object_11"
    },
    {
      "mesh": 10,
      "name": "Object_12"
    },
    {
      "mesh": 11,
      "name": "Object_13"
    },
    {
      "mesh": 12,
      "name": "Object_14"
    },
    {
      "mesh": 13,
      "name": "Object_15"
    },
    {
      "mesh": 14,
      "name": "Object_16"
    }
  ],
  "samplers": [
    {
      "magFilter": 9729,
      "minFilter": 9987,
      "wrapS": 10497,
      "wrapT": 10497
    }
  ],
  "scene": 0,
  "scenes": [
    {
      "name": "Sketchfab_Scene",
      "nodes": [
        0
      ]
    }
  ],
  "textures": [
    {
      "sampler": 0,
      "source": 0
    }
  ]
}
