{
  "accessors": [
    {
      "bufferView": 2,
      "componentType": 5126,
      "count": 20553,
      "max": [
        10.708480834960938,
        29.64483642578125,
        35.402618408203125
      ],
      "min": [
        -10.708480834960938,
        -0.11054611206054688,
        -14.429656982421875
      ],
      "type": "VEC3"
    },
    {
      "bufferView": 2,
      "byteOffset": 246636,
      "componentType": 5126,
      "count": 20553,
      "max": [
        0.9999610185623169,
        0.9999868273735046,
        0.999970555305481
      ],
      "min": [
        -0.999983549118042,
        -0.99998939037323,
        -0.9999861717224121
      ],
      "type": "VEC3"
    },
    {
      "bufferView": 1,
      "componentType": 5126,
      "count": 20553,
      "max": [
        0.9933859705924988,
        0.9919725656509399
      ],
      "min": [
        0.01556643657386303,
        0.006301760673522949
      ],
      "type": "VEC2"
    },
    {
      "bufferView": 1,
      "byteOffset": 164424,
      "componentType": 5126,
      "count": 20553,
      "max": [
        0.9933859705924988,
        0.9919725656509399
      ],
      "min": [
        0.01556643657386303,
        0.006301760673522949
      ],
      "type": "VEC2"
    },
    {
      "bufferView": 1,
      "byteOffset": 328848,
      "componentType": 5126,
      "count": 20553,
      "max": [
        0.9933859705924988,
        0.9919725656509399
      ],
      "min": [
        0.01556643657386303,
        0.006301760673522949
      ],
      "type": "VEC2"
    },
    {
      "bufferView": 0,
      "componentType": 5125,
      "count": 118182,
      "type": "SCALAR"
    }
  ],
  "asset": {
    "extras": {
      "author": "ann55010970637 (https://sketchfab.com/ann55010970637)",
      "license": "CC-BY-4.0 (http://creativecommons.org/licenses/by/4.0/)",
      "source": "https://sketchfab.com/3d-models/elephant-0916efb65c3c44fe9a2daea08b2bc02c",
      "title": "Elephant"
    },
    "generator": "Sketchfab-13.28.0",
    "version": "2.0"
  },
  "bufferViews": [
    {
      "buffer": 0,
      "byteLength": 472728,
      "name": "floatBufferViews",
      "target": 34963
    },
    {
      "buffer": 0,
      "byteLength": 493272,
      "byteOffset": 472728,
      "byteStride": 8,
      "name": "floatBufferViews",
      "target": 34962
    },
    {
      "buffer": 0,
      "byteLength": 493272,
      "byteOffset": 966000,
      "byteStride": 12,
      "name": "floatBufferViews",
      "target": 34962
    }
  ],
  "buffers": [
    {
      "byteLength": 1459272,
      "uri": "scene.bin"
    }
  ],
  "images": [
    {
      "uri": "textures/material_baseColor.png"
    },
    {
      "uri": "textures/material_metallicRoughness.png"
    }
  ],
  "materials": [
    {
      "doubleSided": true,
      "name": "material",
      "pbrMetallicRoughness": {
        "baseColorTexture": {
          "index": 0
        },
        "metallicRoughnessTexture": {
          "index": 1
        }
      }
    }
  ],
  "meshes": [
    {
      "name": "Object_0",
      "primitives": [
        {
          "attributes": {
            "NORMAL": 1,
            "POSITION": 0,
            "TEXCOORD_0": 2,
            "TEXCOORD_1": 3,
            "TEXCOORD_2": 4
          },
          "indices": 5,
          "material": 0,
          "mode": 4
        }
      ]
    }
  ],
  "nodes": [
    {
      "children": [
        1
      ],
      "matrix": [
        1.0,
        0.0,
        0.0,
        0.0,
        0.0,
        2.220446049250313e-16,
        -1.0,
        0.0,
        0.0,
        1.0,
        2.220446049250313e-16,
        0.0,
        0.0,
        0.0,
        0.0,
        1.0
      ],
      "name": "Sketchfab_model"
    },
    {
      "children": [
        2
      ],
      "name": "root"
    },
    {
      "children": [
        3
      ],
      "matrix": [
        1.0,
        0.0,
        0.0,
        0.0,
        0.0,
        2.220446049250313e-16,
        1.0,
        0.0,
        0.0,
        -1.0,
        2.220446049250313e-16,
        0.0,
        0.0,
        0.0,
        0.0,
        1.0
      ],
      "name": "GLTF_SceneRootNode"
    },
    {
      "children": [
        4
      ],
      "name": "root_0"
    },
    {
      "children": [
        5
      ],
      "matrix": [
        0.011624578101161593,
        -0.0,
        -0.015172389092560154,
        0.0,
        0.0,
        0.01911366730928421,
        0.0,
        0.0,
        0.015172389092560154,
        0.0,
        0.011624578101161593,
        0.0,
        -0.18716026842594147,
        -0.24288909137248993,
        0.27415135502815247,
        1.0
      ],
      "name": "node_id34_1"
    },
    {
      "mesh": 0,
      "name": "Object_5"
    }
  ],
  "samplers": [
    {
      "magFilter": 9729,
      "minFilter": 9987,
      "wrapS": 10497,
      "wrapT": 10497
    }
  ],
  "scene": 0,
  "scenes": [
    {
      "name": "Sketchfab_Scene",
      "nodes": [
        0
      ]
    }
  ],
  "textures": [
    {
      "sampler": 0,
      "source": 0
    },
    {
      "sampler": 0,
      "source": 1
    }
  ]
}
