{
  "accessors": [
    {
      "bufferView": 3,
      "componentType": 5126,
      "count": 4076,
      "max": [
        5.882235527038574,
        21.91726303100586,
        5.121980667114258
      ],
      "min": [
        -5.882235527038574,
        -0.1853780746459961,
        -6.697231769561768
      ],
      "type": "VEC3"
    },
    {
      "bufferView": 3,
      "byteOffset": 48912,
      "componentType": 5126,
      "count": 4076,
      "max": [
        0.9996234178543091,
        0.9999324679374695,
        0.999988853931427
      ],
      "min": [
        -0.9996234178543091,
        -0.9999938011169434,
        -0.9999908208847046
      ],
      "type": "VEC3"
    },
    {
      "bufferView": 4,
      "componentType": 5126,
      "count": 4076,
      "max": [
        1.0,
        0.9997437000274658,
        0.9999324679374695,
        1.0
      ],
      "min": [
        -1.0,
        -0.9998864531517029,
        -0.9998835921287537,
        -1.0
      ],
      "type": "VEC4"
    },
    {
      "bufferView": 2,
      "componentType": 5126,
      "count": 4076,
      "max": [
        0.9761204123497009,
        0.9811663031578064
      ],
      "min": [
        0.005206584930419922,
        0.00729784369468689
      ],
      "type": "VEC2"
    },
    {
      "bufferView": 1,
      "componentType": 5125,
      "count": 20088,
      "type": "SCALAR"
    },
    {
      "bufferView": 5,
      "componentType": 5126,
      "count": 14,
      "max": [
        1.0,
        1.5361733858298976e-06,
        1.0,
        0.0,
        0.9999060034751892,
        1.0,
        0.182393878698349,
        0.0,
        0.9853521585464478,
        0.9999060034751892,
        1.0,
        0.0,
        3.654740571975708,
        8.594804763793945,
        3.5233635902404785,
        1.0
      ],
      "min": [
        5.959903149638059e-17,
        -0.09286439418792725,
        -1.0,
        0.0,
        -0.9159399271011353,
        -0.9998829960823059,
        -0.182393878698349,
        0.0,
        -0.9853521585464478,
        -0.9733260273933411,
        -0.18058599531650543,
        0.0,
        -9.511609077453613,
        -8.594808578491211,
        -3.5233635902404785,
        1.0
      ],
      "type": "MAT4"
    },
    {
      "bufferView": 0,
      "componentType": 5123,
      "count": 4076,
      "type": "VEC4"
    },
    {
      "bufferView": 4,
      "byteOffset": 65216,
      "componentType": 5126,
      "count": 4076,
      "max": [
        1.0,
        0.0,
        0.0,
        0.0
      ],
      "min": [
        1.0,
        0.0,
        0.0,
        0.0
      ],
      "type": "VEC4"
    }
  ],
  "asset": {
    "extras": {
      "author": "VRCJared (https://sketchfab.com/VRCJared)",
      "license": "CC-BY-4.0 (http://creativecommons.org/licenses/by/4.0/)",
      "source": "https://sketchfab.com/3d-models/luigi-doll-hd-26337d2e7b4d4a419eb8460c69c90340",
      "title": "Luigi Doll HD"
    },
    "generator": "Sketchfab-12.68.0",
    "version": "2.0"
  },
  "bufferViews": [
    {
      "buffer": 0,
      "byteLength": 32608,
      "byteStride": 8,
      "name": "shortBufferViews",
      "target": 34962
    },
    {
      "buffer": 0,
      "byteLength": 80352,
      "byteOffset": 32608,
      "name": "floatBufferViews",
      "target": 34963
    },
    {
      "buffer": 0,
      "byteLength": 32608,
      "byteOffset": 112960,
      "byteStride": 8,
      "name": "floatBufferViews",
      "target": 34962
    },
    {
      "buffer": 0,
      "byteLength": 97824,
      "byteOffset": 145568,
      "byteStride": 12,
      "name": "floatBufferViews",
      "target": 34962
    },
    {
      "buffer": 0,
      "byteLength": 130432,
      "byteOffset": 243392,
      "byteStride": 16,
      "name": "floatBufferViews",
      "target": 34962
    },
    {
      "buffer": 0,
      "byteLength": 896,
      "byteOffset": 373824,
      "name": "floatBufferViews"
    }
  ],
  "buffers": [
    {
      "byteLength": 374720,
      "uri": "scene.bin"
    }
  ],
  "images": [
    {
      "uri": "textures/lambert2_baseColor.png"
    },
    {
      "uri": "textures/lambert2_metallicRoughness.png"
    },
    {
      "uri": "textures/lambert2_normal.png"
    }
  ],
  "materials": [
    {
      "doubleSided": true,
      "name": "lambert2",
      "normalTexture": {
        "index": 2
      },
      "occlusionTexture": {
        "index": 1
      },
      "pbrMetallicRoughness": {
        "baseColorTexture": {
          "index": 0
        },
        "metallicRoughnessTexture": {
          "index": 1
        }
      }
    }
  ],
  "meshes": [
    {
      "name": "Luigi_Doll_HD_lambert2_0",
      "primitives": [
        {
          "attributes": {
            "JOINTS_0": 6,
            "NORMAL": 1,
            "POSITION": 0,
            "TANGENT": 2,
            "TEXCOORD_0": 3,
            "WEIGHTS_0": 7
          },
          "indices": 4,
          "material": 0,
          "mode": 4
        }
      ]
    }
  ],
  "nodes": [
    {
      "children": [
        1
      ],
      "matrix": [
        1.0,
        0.0,
        0.0,
        0.0,
        0.0,
        2.220446049250313e-16,
        -1.0,
        0.0,
        0.0,
        1.0,
        2.220446049250313e-16,
        0.0,
        0.0,
        0.0,
        0.0,
        1.0
      ],
      "name": "Sketchfab_model"
    },
    {
      "children": [
        2
      ],
      "matrix": [
        0.009999999776482582,
        0.0,
        0.0,
        0.0,
        0.0,
        0.0,
        0.009999999776482582,
        0.0,
        0.0,
        -0.009999999776482582,
        0.0,
        0.0,
        0.0,
        0.0,
        0.0,
        1.0
      ],
      "name": "Luigi Doll HD.fbx"
    },
    {
      "children": [
        3
      ],
      "name": "RootNode"
    },
    {
      "children": [
        4,
        6,
        5
      ],
      "name": "Object_3"
    },
    {
      "children": [
        7
      ],
      "name": "_rootJoint"
    },
    {
      "matrix": [
        0.9999999999999999,
        0.0,
        1.232595164407831e-32,
        0.0,
        -3.466205012102834e-65,
        0.9999999999999999,
        2.812119593028002e-33,
        0.0,
        -1.232595164407831e-32,
        -2.812119593028002e-33,
        0.9999999999999999,
        0.0,
        -4.930380657631324e-32,
        0.0,
        -4.440892098500626e-16,
        1.0
      ],
      "name": "Object_5"
    },
    {
      "mesh": 0,
      "name": "Object_6",
      "skin": 0
    },
    {
      "children": [
        8,
        10,
        13,
        15,
        18
      ],
      "name": "Body_00",
      "rotation": [
        -0.438911497592926,
        -0.5543975830078125,
        0.438911497592926,
        0.5543975830078125
      ],
      "translation": [
        0.0,
        5.385972023010254,
        -1.9365386962890625
      ]
    },
    {
      "children": [
        9
      ],
      "name": "Head_01",
      "rotation": [
        0.9924919605255127,
        0.12230977416038513,
        1.1203773656118626e-19,
        6.1681746547336e-17
      ],
      "translation": [
        4.25305700302124,
        -0.10823964327573776,
        1.232595164407831e-31
      ]
    },
    {
      "name": "joint3_02",
      "rotation": [
        -0.4965520203113556,
        -0.503424346446991,
        -0.4965520203113556,
        0.503424346446991
      ],
      "translation": [
        7.837451457977295,
        1.1102230246251565e-15,
        2.465190328815662e-31
      ]
    },
    {
      "children": [
        11
      ],
      "name": "R_Leg_03",
      "rotation": [
        -0.07152265310287476,
        0.05573879927396774,
        0.7855141758918762,
        0.612164318561554
      ],
      "translation": [
        -3.3382978439331055,
        -0.1821935623884201,
        2.470489978790283
      ]
    },
    {
      "children": [
        12
      ],
      "name": "R_Foot_04",
      "rotation": [
        -0.07719691842794418,
        0.046978846192359924,
        0.5551711916923523,
        0.8268122673034668
      ],
      "translation": [
        -5.278959274291992,
        2.3466639049729565e-06,
        4.534570507530589e-06
      ]
    },
    {
      "name": "joint10_05",
      "rotation": [
        0.4192541241645813,
        0.5694084763526917,
        -0.4192541241645813,
        0.5694084763526917
      ],
      "translation": [
        -3.3560357093811035,
        -5.642017413265421e-07,
        -4.662922947318293e-06
      ]
    },
    {
      "children": [
        14
      ],
      "name": "R_Arm_06",
      "rotation": [
        -0.06382928788661957,
        0.05281617492437363,
        0.7677935361862183,
        0.6353183388710022
      ],
      "translation": [
        3.214566946029663,
        0.7467172145843506,
        3.187459945678711
      ]
    },
    {
      "name": "joint7_07",
      "rotation": [
        -0.015278086997568607,
        0.7069417238235474,
        0.015278086997568607,
        0.7069417238235474
      ],
      "translation": [
        -4.986757278442383,
        -4.752315362566151e-06,
        -1.2575330856634537e-06
      ]
    },
    {
      "children": [
        16
      ],
      "name": "L_Leg_08",
      "rotation": [
        0.05573879927396774,
        0.07152265310287476,
        -0.612164318561554,
        0.7855141758918762
      ],
      "translation": [
        -3.3382949829101563,
        -0.1821947544813156,
        -2.4704947471618652
      ]
    },
    {
      "children": [
        17
      ],
      "name": "L_Foot_09",
      "rotation": [
        -0.07719691842794418,
        0.046978846192359924,
        0.5551711916923523,
        0.8268122673034668
      ],
      "translation": [
        5.2789530754089355,
        -8.881784197001252e-16,
        -8.881784197001252e-16
      ]
    },
    {
      "name": "joint10_010",
      "rotation": [
        0.4192541241645813,
        0.5694084763526917,
        -0.4192541241645813,
        0.5694084763526917
      ],
      "translation": [
        3.3560357093811035,
        8.881784197001252e-16,
        -4.6629367034256575e-14
      ]
    },
    {
      "children": [
        19
      ],
      "name": "L_Arm_011",
      "rotation": [
        0.05281617492437363,
        0.06382928788661957,
        -0.6353183388710022,
        0.7677935361862183
      ],
      "translation": [
        3.214570999145508,
        0.7467206120491028,
        -3.187459707260132
      ]
    },
    {
      "name": "joint7_012",
      "rotation": [
        -0.015278086997568607,
        0.7069417238235474,
        0.015278086997568607,
        0.7069417238235474
      ],
      "translation": [
        4.986757755279541,
        0.0,
        0.0
      ]
    }
  ],
  "samplers": [
    {
      "magFilter": 9729,
      "minFilter": 9987,
      "wrapS": 10497,
      "wrapT": 10497
    }
  ],
  "scene": 0,
  "scenes": [
    {
      "name": "Sketchfab_Scene",
      "nodes": [
        0
      ]
    }
  ],
  "skins": [
    {
      "inverseBindMatrices": 5,
      "joints": [
        4,
        7,
        8,
        9,
        10,
        11,
        12,
        13,
        14,
        15,
        16,
        17,
        18,
        19
      ],
      "skeleton": 4
    }
  ],
  "textures": [
    {
      "sampler": 0,
      "source": 0
    },
    {
      "sampler": 0,
      "source": 1
    },
    {
      "sampler": 0,
      "source": 2
    }
  ]
}
